<?xml version="1.0" encoding="UTF-8" standalone="no"?>
<!DOCTYPE svg PUBLIC "-//W3C//DTD SVG 1.1//EN" "http://www.w3.org/Graphics/SVG/1.1/DTD/svg11.dtd">
<svg width="100%" height="100%" viewBox="0 0 259 63" version="1.1" xmlns="http://www.w3.org/2000/svg" xmlns:xlink="http://www.w3.org/1999/xlink" xml:space="preserve" xmlns:serif="http://www.serif.com/" style="fill-rule:evenodd;clip-rule:evenodd;stroke-linejoin:round;stroke-miterlimit:2;">
    <path d="M257.067,36.735C255.727,36.735 254.934,36.308 254.203,35.151L246.711,23.089L251.889,18.945C252.803,18.215 253.412,17.971 255.057,17.971L256.641,17.971L256.641,13.097L238.852,13.097L238.852,17.971L241.898,17.971C242.629,17.971 243.239,18.153 243.239,18.641C243.239,18.884 243.056,19.555 242.263,20.163L234.648,26.254L234.648,1.218L220.15,1.218L220.15,6.093L222.342,6.093C224.109,6.093 224.535,7.007 224.535,8.712L224.535,34.115C224.535,35.822 224.108,36.735 222.342,36.735L220.731,36.735C218.964,36.735 218.538,35.822 218.538,34.115L218.538,13.099L203.429,13.099L203.429,17.973L206.233,17.973C207.999,17.973 208.425,18.886 208.425,20.592L208.425,34.115C208.425,35.822 207.998,36.735 206.233,36.735L204.56,36.735C202.792,36.735 202.366,35.822 202.366,34.115L202.366,22.54C202.366,16.205 200.052,12.185 193.106,12.185C188.17,12.185 185.309,13.89 182.628,17.789L182.505,17.789L182.505,13.099L168.189,13.099L168.189,17.973L170.687,17.973C172.455,17.973 172.881,18.886 172.881,20.592L172.881,34.115C172.881,34.862 172.798,35.456 172.559,35.889C172.588,35.462 172.608,35.02 172.608,34.541L172.608,31.19L169.258,31.19L169.258,32.591C169.258,36.001 168.587,36.794 167.246,36.794C166.273,36.794 166.091,36.124 166.091,34.358L166.091,23.029C166.091,14.133 161.582,12.184 153.236,12.184C149.757,12.184 144.164,12.671 141.163,15.326C140.042,13.298 137.628,12.184 135.176,12.184C132.617,12.184 130.363,13.28 128.475,14.926C125.673,13.28 122.504,12.184 119.215,12.184C114.527,12.184 109.451,14.018 107.071,17.872C106.488,14.515 103.611,12.184 100.24,12.184C96.645,12.184 94.331,15.047 93.112,17.972L92.991,17.972L92.991,13.098L78.61,13.098L78.61,16.502C75.797,13.678 71.708,12.184 66.946,12.184C57.869,12.184 51.229,17.606 51.229,27.353C51.229,31.164 52.248,34.309 54.025,36.735L52.967,36.735C51.2,36.735 50.774,35.822 50.774,34.115L50.774,22.54C50.774,16.205 48.459,12.185 41.514,12.185C36.58,12.185 33.716,13.89 31.036,17.789L30.914,17.789L30.914,13.099L16.598,13.099L16.598,17.973L19.096,17.973C20.863,17.973 21.29,18.886 21.29,20.592L21.29,34.115C21.29,35.822 20.863,36.735 19.096,36.735L17.302,36.735C15.535,36.735 15.109,35.822 15.109,34.115L15.109,13.099L0,13.099L0,17.973L2.802,17.973C4.569,17.973 4.994,18.886 4.994,20.592L4.994,34.115C4.994,35.822 4.569,36.735 2.802,36.735L0.182,36.735L0.182,41.609L35.057,41.609L35.057,36.735L33.596,36.735C31.829,36.735 31.402,35.822 31.402,34.115L31.402,22.845C31.402,20.285 33.169,17.666 35.971,17.666C40.114,17.666 40.662,20.104 40.662,23.636L40.662,34.115C40.662,35.822 40.235,36.735 38.469,36.735L37.19,36.735L37.19,41.609L55.284,41.609L55.284,38.208C58.097,41.035 62.186,42.533 66.948,42.533C71.71,42.533 75.799,41.035 78.612,38.208L78.612,41.609L98.108,41.609L98.108,36.735L95.61,36.735C93.843,36.735 93.416,35.822 93.416,34.115L93.416,23.211C93.416,20.227 95.487,16.145 98.656,16.145C99.448,16.145 99.997,16.206 100.607,16.815C98.596,17.18 97.439,18.46 97.439,20.532C97.439,23.334 99.754,24.552 102.313,24.552C103.676,24.552 104.84,23.914 105.692,22.967C105.704,27.319 106.984,30.167 109.835,32.167C106.605,33.447 104.595,34.726 104.595,38.382C104.595,41.061 106.91,43.082 109.225,43.874L109.225,43.996C106.848,44.423 104.108,45.701 104.108,48.565C104.108,53.073 110.687,54.536 119.46,54.536C128.964,54.536 137.249,53.013 137.249,45.397C137.249,39.051 131.828,37.771 126.589,37.771L114.221,37.771C113.246,37.771 111.115,37.101 111.115,35.579C111.115,34.665 111.723,33.995 112.333,33.811C114.283,34.604 116.476,34.846 118.547,34.846C126.102,34.846 132.56,31.315 132.56,23.333C132.56,21.141 131.524,18.886 130.426,17.059C132.498,14.683 135.22,15.384 135.666,15.779C134.691,16.57 133.961,17.486 133.961,18.825C133.961,20.775 135.3,22.298 137.311,22.298C138.166,22.298 138.916,22.149 139.549,21.865C140.377,23.515 142.273,24.43 144.406,24.43C146.842,24.43 149.218,23.273 149.218,20.592C149.218,18.459 147.208,17.486 145.381,17.241L145.381,17.119C146.842,16.205 148.549,15.961 150.193,15.961C153.544,15.961 156.102,17.302 156.102,21.322C156.102,29.301 138.008,22.54 138.008,34.054C138.008,40.268 141.604,42.533 147.389,42.533C151.351,42.533 154.274,41.182 156.772,38.197C157.747,41.122 160.611,42.533 163.534,42.533C166.074,42.533 167.984,42.264 169.383,41.609L186.652,41.609L186.652,36.735L185.189,36.735C183.423,36.735 182.997,35.822 182.997,34.115L182.997,22.845C182.997,20.285 184.765,17.666 187.566,17.666C191.709,17.666 192.256,20.104 192.256,23.636L192.256,34.115C192.256,35.822 191.831,36.735 190.064,36.735L188.784,36.735L188.784,41.609L237.821,41.609L237.821,36.735L236.846,36.735C235.079,36.735 234.653,36.186 234.653,34.115L234.653,33.02L239.284,29.121L242.574,34.604C242.878,35.091 243.061,35.518 243.061,35.943C243.061,36.43 242.817,36.736 241.841,36.736L240.137,36.736L240.137,41.61L258.595,41.61L258.595,36.736L257.067,36.736L257.067,36.735ZM66.947,37.649C63.292,37.649 62.013,34.542 62.013,27.353C62.013,20.164 63.292,17.058 66.947,17.058C70.603,17.058 71.881,20.164 71.881,27.353C71.881,34.542 70.603,37.649 66.947,37.649ZM83.302,34.115C83.302,35.822 82.876,36.735 81.109,36.735L79.869,36.735C81.647,34.309 82.665,31.164 82.665,27.353C82.665,23.541 81.645,20.394 79.867,17.972L81.109,17.972C82.877,17.972 83.302,18.885 83.302,20.591L83.302,34.115ZM120.857,45.457C125.974,45.457 130.056,45.823 130.056,47.955C130.056,49.722 125.974,50.453 120.857,50.453C115.74,50.453 111.658,49.722 111.658,47.955C111.658,45.823 115.74,45.457 120.857,45.457ZM119.092,31.069C116.411,31.069 115.557,28.023 115.557,23.515C115.557,19.006 116.411,15.9 119.092,15.9C121.772,15.9 122.624,19.006 122.624,23.515C122.624,28.023 121.771,31.069 119.092,31.069ZM155.977,31.679C155.977,34.238 155.063,36.796 151.59,36.796C149.701,36.796 148.117,35.883 148.117,33.385C148.117,29.608 153.052,29.241 155.976,27.536L155.976,31.679L155.977,31.679ZM213.236,10.601C216.221,10.601 218.537,8.286 218.537,5.301C218.537,2.316 216.222,0 213.236,0C210.25,0 207.936,2.315 207.936,5.301C207.937,8.285 210.251,10.601 213.236,10.601ZM9.808,10.601C12.793,10.601 15.108,8.286 15.108,5.301C15.108,2.316 12.793,0 9.808,0C6.823,0 4.508,2.315 4.508,5.301C4.507,8.285 6.822,10.601 9.808,10.601Z" style="fill:rgb(94,121,188);fill-rule:nonzero;"/>
    <g>
        <path d="M218.63,47.227L217.062,47.227C216.43,47.227 216.077,47.606 216.077,48.239L216.077,57.164C216.077,58.782 216.962,59.92 219.01,59.92C221.943,59.92 222.448,58.631 222.448,55.495L222.448,48.239C222.448,47.606 222.094,47.227 221.462,47.227L219.971,47.227L219.971,45.002L227.683,45.002L227.683,47.227L226.191,47.227C225.559,47.227 225.205,47.606 225.205,48.239L225.205,56.354C225.205,60.096 223.208,62.271 218.505,62.271C214.056,62.271 211.324,60.855 211.324,56.607L211.324,48.239C211.324,47.606 210.97,47.227 210.339,47.227L208.771,47.227L208.771,45.002L218.63,45.002L218.63,47.227ZM175.4,57.086C174.977,56 174.752,54.763 174.752,53.396C174.752,47.91 178.368,44.497 183.93,44.497C189.493,44.496 193.109,47.909 193.109,53.396C193.109,58.882 189.493,62.271 183.93,62.271C180.15,62.271 177.268,60.705 175.81,57.979C175.802,60.415 174.936,62.269 171.689,62.269C169.288,62.269 167.669,61.081 167.669,58.123L167.669,56.05C167.669,54.532 167.416,54.179 165.368,54.179L163.295,54.179L163.295,58.528C163.295,59.16 163.649,59.54 164.28,59.54L165.847,59.54L165.847,61.765L156.012,61.765L156.012,59.54L157.554,59.54C158.187,59.54 158.54,59.16 158.54,58.528L158.54,48.238L158.541,48.238C158.541,47.605 158.187,47.226 157.555,47.226L156.826,47.226C157.237,47.893 157.452,48.728 157.452,49.754C157.452,53.218 154.999,54.532 150.347,54.532L147.567,54.532L147.567,58.527C147.567,59.159 147.921,59.539 148.552,59.539L150.246,59.539L150.246,61.764L140.284,61.764L140.284,59.54L141.826,59.54C142.459,59.54 142.812,59.16 142.812,58.528L142.812,48.238L142.811,48.238C142.811,47.605 142.457,47.226 141.825,47.226L140.258,47.226L140.258,45.001L150.852,45.001C153.104,45.001 154.856,45.381 155.988,46.284L155.988,45.001L167.644,45.001C171.183,45.001 173.282,46.392 173.282,49.097C173.282,51.498 171.664,52.586 169.465,52.889L169.465,52.94C171.361,53.471 172.423,54.078 172.423,56.151L172.423,58.806C172.423,59.286 172.6,59.665 173.282,59.665C173.939,59.665 174.117,58.881 174.117,58.098L174.117,57.086L175.4,57.086ZM242.628,47.226L242.628,51.651L240.276,51.651C240.276,49.047 238.86,46.847 236.004,46.847C233.197,46.847 231.68,48.869 231.68,53.369C231.68,57.364 232.666,59.918 236.206,59.918C238.86,59.918 240.276,57.718 240.276,55.367L242.628,55.367C242.552,60.019 239.796,62.269 235.119,62.269C229.885,62.269 226.193,59.286 226.193,53.369C226.193,48.009 229.884,44.495 234.79,44.495C236.054,44.495 238.734,45.127 239.847,46.188L240.353,44.773L242.628,44.773L242.628,45.001L258.51,45.001L258.51,51.423L256.159,51.423C256.159,47.781 254.743,47.226 251.507,47.226L249.004,47.226L249.004,52.055L249.787,52.055C251.254,52.055 251.784,51.474 251.784,49.906L251.784,49.35L253.883,49.35L253.883,56.986L251.784,56.986L251.784,56.379C251.784,55.443 251.43,54.28 250.52,54.28L249.003,54.28L249.003,59.54L252.087,59.54C254.742,59.54 256.158,58.983 256.158,54.913L258.509,54.913L258.509,61.765L241.721,61.765L241.721,59.54L243.263,59.54C243.896,59.54 244.249,59.16 244.249,58.528L244.249,48.238L244.25,48.238C244.25,47.605 243.896,47.226 243.264,47.226L242.628,47.226ZM194.023,48.238C194.023,47.605 193.669,47.226 193.037,47.226L191.52,47.226L191.52,45.001L200.698,45.001C206.437,45.001 210.154,47.504 210.154,53.522C210.154,59.287 206.513,61.764 200.547,61.764L191.546,61.764L191.546,59.54L193.037,59.54C193.669,59.54 194.023,59.16 194.023,58.528L194.023,48.238ZM180.239,53.396C180.239,57.821 181.402,59.919 183.93,59.919C186.459,59.919 187.621,57.82 187.621,53.396C187.621,48.972 186.459,46.848 183.93,46.848C181.402,46.848 180.239,48.971 180.239,53.396ZM198.776,59.54L199.939,59.54C203.277,59.54 204.793,58.377 204.793,53.37C204.793,48.364 203.276,47.226 199.939,47.226L198.776,47.226L198.776,59.54ZM147.564,52.309L149.738,52.309C151.508,52.309 152.696,51.348 152.696,49.781C152.696,48.214 151.558,47.227 150.142,47.227L147.564,47.227L147.564,52.309ZM163.296,47.226L163.296,51.954L165.722,51.954C167.593,51.954 168.529,51.55 168.529,49.527C168.529,47.656 167.442,47.226 165.116,47.226L163.296,47.226Z" style="fill:rgb(139,197,63);fill-rule:nonzero;"/>
    </g>
</svg>
