<?xml version="1.0" encoding="UTF-8" standalone="no"?>
<!DOCTYPE svg PUBLIC "-//W3C//DTD SVG 1.1//EN" "http://www.w3.org/Graphics/SVG/1.1/DTD/svg11.dtd">
<svg width="100%" height="100%" viewBox="0 0 1800 579" version="1.1" xmlns="http://www.w3.org/2000/svg" xmlns:xlink="http://www.w3.org/1999/xlink" xml:space="preserve" xmlns:serif="http://www.serif.com/" style="fill-rule:evenodd;clip-rule:evenodd;stroke-linejoin:round;stroke-miterlimit:1.41421;">
    <g id="Artboard1" transform="matrix(1.5625,0,0,0.669916,0,0)">
        <rect x="0" y="0" width="1152" height="864" style="fill:none;"/>
        <g transform="matrix(0.579129,0,0,1.35075,84.3505,-1342.7)">
            <path d="M1498.93,1262.42C1504.01,1263 1508.65,1263.37 1512.85,1263.54C1478.48,1340.21 1457.32,1413.66 1449.32,1483.87C1439.18,1572.81 1461.37,1619.45 1512.5,1625.28C1524.72,1626.67 1537.44,1622.58 1550.5,1612.6C1562.9,1603.13 1571.4,1594.9 1576.1,1588.04C1580.64,1581.41 1584.46,1575.54 1587.57,1570.42C1588.82,1568.47 1589.01,1566.56 1588.57,1564.82C1588.1,1562.95 1586.68,1560.83 1583.49,1559.32C1579.67,1557.35 1576.34,1556.93 1573.61,1557.56C1570.5,1558.28 1567.85,1560.28 1565.98,1563.94C1561.58,1571.62 1554.64,1579.07 1545.24,1586.37C1536.38,1593.25 1527.47,1596.32 1518.41,1595.29C1507.57,1594.06 1500.62,1585.97 1496.74,1571.81C1492.31,1555.6 1491.96,1531.99 1495.5,1500.99C1502.64,1438.3 1527.83,1358.41 1570.96,1261.27C1617.13,1258.25 1642.39,1256.92 1646.77,1257.42C1653.79,1258.22 1658.79,1256.73 1661.97,1253.84C1664.35,1251.68 1665.9,1248.65 1666.36,1244.64C1666.73,1241.39 1665.93,1238.93 1664.49,1237.12C1663.06,1235.32 1660.83,1233.99 1657.59,1233.62C1645.97,1232.29 1621.61,1231.52 1584.51,1231.34C1594.31,1209.71 1603,1191.85 1610.59,1177.75C1610.89,1177.19 1611.09,1176.58 1611.16,1175.95C1611.78,1170.54 1610.76,1166.39 1608.65,1163.41C1606.39,1160.23 1602.8,1158.11 1597.62,1157.52C1589.4,1156.58 1580.31,1160.1 1570.68,1168.84C1558.37,1180.01 1544.66,1200.1 1529.72,1229.22C1516.64,1228.43 1506.99,1227.69 1500.78,1226.98C1495.92,1226.43 1492.52,1225.52 1490.99,1223.25C1490.17,1222.05 1488.86,1221.26 1487.41,1221.09C1485.69,1220.89 1484.26,1221.17 1483.1,1221.74C1477.15,1223.13 1473.57,1227.25 1472.75,1234.43C1472,1241.02 1473.15,1246.43 1475.91,1250.75C1479.87,1256.94 1487.41,1261.11 1498.93,1262.42ZM74.254,1327.32C74.356,1307.44 73.152,1288.01 70.647,1269.02C64.842,1225.03 55.301,1190.5 42.155,1165.38C21.596,1126.1 -7.726,1109.22 -45.506,1114.2C-71.714,1117.66 -92.791,1127.52 -108.807,1143.62C-125.375,1160.27 -132.212,1177.81 -129.808,1196.04C-128.686,1204.54 -125.509,1210.02 -121.093,1212.9C-117.884,1214.99 -113.904,1215.87 -109.098,1215.23C-97.149,1213.65 -91.837,1207.97 -91.75,1199.86C-91.735,1198.41 -92.349,1197.02 -93.434,1196.06C-94.277,1195.31 -95.34,1194.88 -96.447,1194.81C-96.646,1194.22 -96.954,1193.21 -97.069,1192.34C-97.642,1188 -96.781,1182.58 -94.698,1176.04C-87.966,1155 -73.769,1143.03 -52.087,1140.17C-30.487,1137.32 -14.17,1144.13 -3.246,1160.88C8.403,1178.73 15.882,1200.58 19.288,1226.39C19.812,1230.37 20.189,1234.76 20.421,1239.58C20.423,1239.64 20.427,1239.7 20.432,1239.76C26.157,1308.3 22.497,1387.62 9.489,1477.72C9.488,1477.73 9.488,1477.73 9.487,1477.74C2.207,1529.18 -3.117,1560.72 -6.548,1572.34C-6.746,1573.01 -6.801,1573.72 -6.71,1574.41L-6.547,1575.64C-5.747,1581.71 -3.454,1585.95 -0.159,1588.6C3.22,1591.32 7.82,1592.55 13.757,1591.76C19.57,1591 25.832,1586.29 31.7,1576.66C39.062,1564.59 46.548,1544.2 54.014,1515.45C66.153,1468.7 87.033,1403.01 116.643,1318.38C116.646,1318.38 116.648,1318.37 116.65,1318.36C132.569,1272.26 150.912,1228.01 171.681,1185.62C192.283,1143.58 212.578,1111.11 232.629,1088.27C233.167,1087.69 233.719,1087.2 234.292,1086.81L228.992,1117.18C198.506,1295.31 188.695,1424.9 199.389,1505.94C210.226,1588.07 242.841,1624.7 294.869,1617.83C304.02,1616.63 312.473,1612.65 320.183,1605.81C327.593,1599.24 333.487,1591.31 337.852,1582.01C342.003,1573.17 344.855,1566.62 346.422,1562.37C347.993,1558.11 349.227,1554.53 350.125,1551.64C351.054,1548.65 350.726,1546.28 349.832,1544.53C348.798,1542.49 346.908,1540.87 343.764,1540.27C339.889,1539.52 336.716,1539.97 334.209,1541.24C331.485,1542.63 329.378,1545.01 328.137,1548.59C319.874,1572 309.321,1585.2 295.187,1587.07C284.399,1588.49 275.689,1583.2 268.7,1571.82C260.731,1558.84 255.052,1538.53 251.413,1510.96L251.413,1510.96C242.693,1444.88 249.158,1342.36 270.663,1203.39C270.665,1203.38 270.667,1203.37 270.668,1203.36C279.017,1147.02 287.438,1102.3 295.945,1069.19C296.105,1068.58 296.143,1067.93 296.06,1067.3C294.509,1055.54 290.457,1047.19 284.393,1042.01C278.145,1036.67 269.631,1034.47 258.732,1035.91C236.967,1038.78 213.273,1056.83 188.299,1090.88C153.537,1138.28 115.485,1217.08 74.254,1327.32ZM1121.8,1376.54C1117.52,1401.71 1114.94,1427.89 1114.08,1455.07C1113.06,1486.78 1116.98,1514.41 1125.75,1537.98C1135.22,1563.42 1149.98,1575.98 1169.16,1576.59C1177.88,1576.87 1186.61,1572.41 1194.94,1562.48C1202.44,1553.54 1207.32,1546.33 1209.68,1540.94C1212,1535.64 1213.63,1531.5 1214.59,1528.52C1216.12,1523.72 1215.59,1520.27 1214.27,1518.15C1212.59,1515.45 1210.05,1513.93 1206.52,1513.82C1202.98,1513.7 1200.08,1514.61 1197.77,1516.31C1195.57,1517.93 1193.83,1520.33 1192.77,1523.63C1189.53,1531.35 1186.04,1537.15 1182.18,1540.95C1179.02,1544.06 1175.68,1545.71 1172.01,1545.59C1168.61,1545.48 1166.4,1542.66 1164.5,1538.07C1160.38,1528.11 1158.89,1510.84 1159.68,1486.3C1161.03,1444.11 1167.1,1401.86 1177.89,1359.56C1188.66,1317.28 1197.12,1289.07 1203.31,1274.92C1209.5,1260.77 1214.57,1249.86 1218.5,1242.19C1218.84,1241.54 1219.03,1240.81 1219.05,1240.07C1219.25,1233.87 1217.87,1229.25 1215.41,1226.07C1212.68,1222.54 1208.57,1220.46 1202.89,1220.28C1195.9,1220.06 1188.84,1222.51 1181.82,1227.89C1172.44,1235.07 1162.93,1247.78 1153.51,1266.17C1135.55,1298.99 1112.26,1337.61 1083.63,1382.04C1083.62,1382.05 1083.62,1382.05 1083.62,1382.06C1067.22,1407.76 1051.69,1429.09 1037.01,1446.03C1028.54,1455.81 1021.3,1462.66 1015.22,1466.49C1012.02,1468.5 1009.31,1469.66 1006.95,1469.59C1003.89,1469.49 1002.04,1467.1 1000.64,1463.22C998.508,1457.37 997.738,1448.65 998.108,1437.09C999.662,1388.56 1013.6,1337.17 1039.83,1282.91C1051.22,1259.76 1062.96,1242.47 1075.18,1231.11C1086.63,1220.46 1098.39,1215.16 1110.62,1215.55C1115.18,1215.69 1119.2,1217.4 1122.69,1220.61C1126.49,1224.11 1128.99,1226.77 1130,1228.76C1131.04,1230.84 1131.98,1233.29 1132.82,1236.1C1134.18,1240.68 1139.09,1244.37 1148.77,1244.68C1152.23,1244.8 1155.16,1243.97 1157.59,1242.36C1160.94,1240.14 1163.48,1236.29 1164.69,1230.52C1164.9,1229.52 1164.8,1228.48 1164.4,1227.54L1161.02,1219.56C1158.87,1213.05 1153.78,1206.32 1145.47,1199.61C1137.29,1192.99 1125.99,1189.29 1111.47,1188.82C1097.53,1188.38 1082.33,1192.17 1065.92,1200.37C1065.91,1200.38 1065.91,1200.38 1065.9,1200.38C1028.88,1219.1 998.135,1255.25 973.968,1309.1C956.747,1347.28 947.666,1382.58 946.629,1414.97C944.798,1472.15 963.374,1500.53 999.722,1501.69L999.722,1501.69C1011.2,1502.06 1025.42,1495.15 1041.92,1480.09C1063.79,1460.13 1090.44,1425.63 1121.8,1376.54ZM1792.92,1258.08C1772.03,1254.99 1750.67,1257.89 1728.87,1266.87C1728.84,1266.88 1728.82,1266.89 1728.8,1266.89C1689.55,1283.74 1655.89,1315.65 1627.98,1362.81C1627.96,1362.83 1627.95,1362.85 1627.94,1362.87C1610.14,1393.9 1599.21,1423.41 1595.08,1451.36C1592.83,1466.51 1592.55,1481.53 1594.22,1496.4C1594.23,1496.44 1594.23,1496.48 1594.24,1496.52C1597.31,1519.07 1605.45,1536.78 1618.45,1549.76C1631.43,1562.7 1649.31,1570.98 1672.19,1574.37C1683.94,1576.1 1695.98,1575.12 1708.32,1571.39C1720.48,1567.71 1730.58,1563.04 1738.64,1557.44C1746.52,1551.96 1755.36,1544.39 1765.15,1534.7C1775.36,1524.59 1781.34,1517.11 1783.36,1512.5C1783.43,1512.34 1783.49,1512.18 1783.54,1512.03C1784.5,1509.06 1783.85,1506.26 1780.77,1503.94C1778.88,1502.52 1775.22,1501.15 1769.63,1500.32C1762.97,1499.34 1758.16,1501.37 1754.98,1505.8C1746.6,1516.2 1736.6,1525.37 1724.98,1533.29C1719.35,1537.13 1712.67,1540.11 1704.96,1542.28C1697.43,1544.39 1690.51,1545.03 1684.19,1544.09C1677.92,1543.17 1672.86,1541.72 1669.03,1539.65C1669.01,1539.64 1668.99,1539.63 1668.98,1539.62C1648.4,1528.8 1641.89,1504.07 1647.52,1466.01C1654.53,1418.57 1673.65,1374.16 1704.83,1332.76C1732.88,1296.05 1759.27,1278.88 1784.9,1282.67C1788.96,1283.27 1792.13,1284.62 1794.27,1287C1797.74,1290.86 1798.41,1296.95 1797.2,1305.13C1794.01,1326.76 1780.88,1349.06 1758.17,1372.22C1758.16,1372.23 1758.15,1372.24 1758.15,1372.24C1730.45,1400.78 1702.94,1413.37 1675.3,1409.28C1673.58,1409.03 1671.86,1409.68 1670.74,1411C1669.62,1412.33 1669.27,1414.14 1669.81,1415.78C1671.6,1421.23 1674.84,1425.6 1679.54,1428.88C1683.87,1431.92 1689.53,1434.03 1696.55,1435.07C1737.51,1441.12 1773.37,1426.31 1803.98,1390.29C1804,1390.27 1804.01,1390.26 1804.02,1390.24C1821.98,1368.59 1832.48,1346.9 1835.68,1325.24C1838.59,1305.58 1836.31,1290.25 1829.37,1279.18C1822.24,1267.81 1810.17,1260.63 1792.92,1258.08L1792.92,1258.08ZM1272.89,1487.26C1274.27,1467.97 1281.44,1444.86 1294.27,1417.9C1312.58,1379.97 1332.48,1355.59 1354.44,1345.14C1354.55,1345.09 1354.65,1345.03 1354.76,1344.97C1358.67,1342.75 1361.15,1337.87 1360.17,1329.67C1359.45,1323.69 1356.69,1320.8 1353.84,1319.86C1351.77,1319.18 1349.1,1319.3 1346,1321.05C1325.24,1331.92 1303.65,1354.11 1281.46,1387.83C1259.33,1421.5 1247.18,1454.41 1244.89,1486.51C1243.31,1508.82 1247.23,1525.84 1256.16,1537.69C1265.28,1549.79 1279.65,1556.78 1299.5,1558.19C1326.47,1560.11 1351.67,1548.68 1374.89,1523.44C1397.65,1498.72 1410.42,1467.62 1413.09,1430.11C1414.55,1409.65 1410.9,1376.31 1402.01,1330.13C1393.36,1285.18 1389.51,1255 1390.61,1239.55C1392.41,1214.27 1404.97,1190.42 1428.02,1167.84C1428.04,1167.82 1428.07,1167.79 1428.09,1167.77C1436.84,1158.84 1441.02,1151.28 1441.43,1145.58C1441.82,1140.15 1440.28,1136.03 1437.31,1133.09C1434.58,1130.4 1430.41,1128.6 1424.6,1128.18C1406.48,1126.89 1386.88,1138.07 1366.46,1162.82C1347.31,1186.04 1323.01,1221.48 1293.58,1269.17C1264.52,1316.24 1239.39,1353.04 1218.15,1379.55C1217.07,1380.66 1216.27,1382.22 1216.12,1384.39C1216.01,1385.85 1216.77,1388.72 1219.82,1392.24C1222.15,1394.92 1225.21,1396.87 1229.06,1397.98C1233.84,1399.37 1237.66,1398.47 1240.64,1395.89C1240.86,1395.7 1241.07,1395.49 1241.25,1395.26C1263.17,1368.09 1288.72,1330.88 1317.9,1283.63C1335.83,1254.59 1349.34,1232.96 1358.45,1218.75C1358.4,1219.41 1358.35,1220.09 1358.3,1220.78C1357.45,1232.68 1359.45,1258.33 1364.41,1297.71C1369.26,1336.18 1370.97,1365.81 1369.49,1386.61C1366.47,1428.95 1356.7,1463.54 1340,1490.32C1331.85,1503.38 1323.72,1513.08 1315.51,1519.32C1308.02,1525.01 1300.55,1527.73 1293.01,1527.19C1276.93,1526.05 1271.11,1512.27 1272.89,1487.26L1272.89,1487.26ZM606.828,1383.49C614.048,1326.99 625.629,1271.72 641.568,1217.69C641.713,1217.2 641.782,1216.69 641.772,1216.18C641.653,1210.31 639.982,1206.03 637.269,1203.15C634.399,1200.1 630.244,1198.39 624.629,1198.5C616.192,1198.67 608.167,1203.25 600.942,1212.85C591.531,1225.37 583.162,1247.05 576.12,1278.01C564.651,1328.42 559.536,1384.84 560.803,1447.27C561.225,1468.06 564.133,1482.52 569.038,1490.73C573.205,1497.72 578.789,1500.9 585.494,1500.77C591.116,1500.65 594.86,1498.8 597.054,1496.05C598.682,1494.02 599.607,1491.37 599.539,1488.04C599.425,1482.42 605.689,1463 617.859,1429.63C630.333,1395.43 647.056,1357.54 668.021,1315.97C688.695,1274.97 707.704,1246.72 725.247,1231.34C726.324,1230.41 727.457,1229.69 728.657,1229.21C711.696,1307.27 703.763,1371.75 704.796,1422.65L704.796,1422.65C705.217,1443.4 708.032,1457.84 712.771,1466.05C716.842,1473.1 722.324,1476.28 728.867,1476.15C734.683,1476.03 738.573,1474.21 740.846,1471.55C742.612,1469.48 743.6,1466.8 743.532,1463.41C743.478,1460.77 744.675,1456.36 746.856,1450.1C752.557,1433.73 765.091,1406.33 784.423,1367.86C811.848,1313.3 836.873,1275.73 859.694,1255.27C860.219,1254.82 860.74,1254.41 861.26,1254.06C849.5,1301.88 844.234,1356.91 845.497,1419.17C846.242,1455.88 851.453,1485.63 860.991,1508.44C871.366,1533.25 885.996,1544.9 903.894,1544.53C910.324,1544.4 916.91,1541.5 923.466,1535.43C929.384,1529.95 933.17,1525.55 934.968,1522.34C938.624,1516.7 940.203,1512.36 940.273,1509.56C940.331,1507.23 939.619,1505.43 938.469,1504.06C937.03,1502.34 934.627,1501.04 930.919,1501.12C929.873,1501.14 928.526,1501.42 926.945,1502.2C924.936,1503.18 922.092,1505.24 918.498,1508.48C915.078,1511.55 911.704,1513.29 908.223,1513.36C904.654,1513.43 902.165,1510.63 899.928,1505.95C895.141,1495.92 892.667,1478.24 892.153,1452.95C890.787,1385.64 900.064,1316.27 919.965,1244.84C920.095,1244.37 920.157,1243.88 920.147,1243.39C919.921,1232.25 916.591,1224.04 910.661,1218.58C904.803,1213.19 896.206,1210.35 884.713,1210.59C868.822,1210.91 850.881,1221.75 831.46,1244C813.046,1265.1 797.074,1287.83 783.542,1312.18C772.587,1331.89 761.736,1353.33 750.99,1376.5C758.712,1326.44 770.645,1275.65 786.786,1224.13C786.948,1223.61 787.024,1223.07 787.014,1222.53C786.783,1211.19 783.462,1202.84 777.557,1197.29C771.688,1191.77 763.078,1188.87 751.567,1189.1C732.094,1189.5 711.906,1201.13 691.429,1224.71C664.193,1256.08 635.943,1308.98 606.828,1383.49ZM404.094,1524.7C428.505,1523.02 450.864,1507.48 470.685,1477.42C489.744,1448.52 503.768,1413.34 512.692,1371.87C521.061,1332.98 524.436,1294.62 522.825,1256.79C532.155,1259.01 540.531,1259.83 547.947,1259.32C558.32,1258.6 565.665,1255.08 570.229,1249.3C574.862,1243.44 576.895,1236.99 576.41,1229.96C576.287,1228.19 575.226,1226.61 573.627,1225.82C572.027,1225.04 570.13,1225.16 568.647,1226.15C563.7,1229.45 556.869,1231.28 548.224,1231.88C539.765,1232.46 529.83,1229.37 518.316,1222.93C514.069,1205.71 507.771,1190.4 499.449,1177.01C489.692,1161.31 479.626,1154.58 470.517,1155.21C463.993,1155.66 457.692,1159.03 451.853,1165.74C446.045,1172.41 443.555,1179.31 444.038,1186.29C444.476,1192.62 449.344,1202.43 459.321,1215.36C468.294,1227 479.239,1236.57 492.162,1244.08C492.161,1244.08 492.489,1248.82 492.489,1248.82C495.11,1286.71 492.316,1324.76 484.113,1362.99C475.947,1401.04 464.588,1432.1 449.952,1456.14C436.209,1478.7 422.756,1491.02 408.667,1491.99C397.197,1492.78 388.26,1488.07 381.798,1477.97C374.58,1466.68 370.327,1449.27 368.704,1425.81C365.956,1386.07 372.519,1345.09 388.337,1302.85C403.495,1262.37 422.621,1240.64 447.099,1238.95C448.635,1238.84 450.036,1238.04 450.898,1236.76C451.759,1235.48 451.985,1233.88 451.509,1232.42C449.526,1226.31 446.254,1221.92 441.897,1219.1C437.579,1216.31 432.364,1215.03 426.207,1215.45C390.032,1217.96 360.092,1245.42 337.396,1298.92C337.394,1298.92 337.393,1298.93 337.391,1298.93C319.982,1340.25 312.689,1380.87 315.45,1420.79C318.468,1464.42 330.527,1494.14 350.786,1510.27C364.638,1521.3 382.382,1526.21 404.094,1524.7L404.094,1524.7Z" style="fill-opacity:0.2;"/>
        </g>
        <g transform="matrix(0.641192,0,0,2.72083,-630.676,-2255.5)">
            <path d="M1327.32,1070.08C1334.11,1098.36 1348.97,1111.67 1371.92,1110C1385.99,1108.98 1397.13,1102.07 1405.35,1089.26C1406.71,1087.09 1409.71,1086.25 1414.35,1086.75C1416.67,1086.99 1417.43,1087.82 1416.64,1089.22C1415.85,1090.62 1414.76,1092.36 1413.37,1094.42C1411.98,1096.49 1409.45,1099.67 1405.78,1103.98C1402.1,1108.28 1397.15,1111.95 1390.91,1114.99C1384.67,1118.03 1377.86,1119.82 1370.45,1120.36C1325.67,1123.6 1298.61,1105.8 1289.28,1066.94C1279.66,1026.87 1288.57,962.779 1315.99,874.686L1321.14,858.478C1321.49,856.797 1320.46,856.044 1318.06,856.218C1315.65,856.393 1313.46,857.069 1311.48,858.247C1293.15,869.719 1274.56,886.022 1255.72,907.155C1236.88,928.288 1220.25,950.348 1205.81,973.335C1179.01,1015.43 1160.12,1048.11 1149.13,1071.36C1138.14,1094.62 1127.28,1106.63 1116.55,1107.41C1108.78,1107.98 1104.35,1106.02 1103.28,1101.55L1103.13,1100.93C1106.26,1095.12 1111.13,1079.35 1117.76,1053.61C1129.56,1008.67 1132.87,969.104 1127.67,934.915C1127.45,932.447 1127.1,930.196 1126.61,928.162C1123.44,914.938 1116.42,903.752 1105.57,894.605C1094.71,885.457 1078.55,881.662 1057.08,883.219C1035.61,884.776 1021.55,891.281 1014.88,902.734C1012.75,906.407 1011.98,909.465 1012.57,911.906C1013.15,914.347 1014.74,915.474 1017.33,915.286C1017.27,918.188 1013.36,919.921 1005.59,920.484C997.814,921.048 993.268,918.583 991.95,913.091C989.947,904.75 995.845,896.767 1009.64,889.143C1023.44,881.519 1041.63,876.888 1064.2,875.251C1117.87,871.358 1151.15,896.266 1164.05,949.974C1166.83,961.57 1167.81,973.504 1166.99,985.775L1171.99,985.413C1236.32,889.468 1291.99,839.791 1339,836.382C1355.65,835.174 1365.2,839.656 1367.64,849.828C1359.93,866.325 1352.29,888.612 1344.72,916.69C1325.2,985.995 1319.4,1037.13 1327.32,1070.08Z" style="fill:white;fill-rule:nonzero;stroke:white;stroke-width:6.8px;"/>
            <path d="M1469.38,1074.11C1423.57,1075.85 1398.49,1059.42 1394.14,1024.82C1391.69,1005.38 1398.18,985.588 1413.61,965.461C1433.24,940.032 1458.7,926.722 1489.98,925.533C1494.45,925.363 1498.25,925.835 1501.39,926.95C1504.52,928.065 1506.8,929.83 1508.23,932.244C1484.76,933.136 1465.77,944.246 1451.24,965.573C1436.7,986.901 1430.7,1007.6 1433.23,1027.66C1436.29,1052.02 1449.93,1063.74 1474.14,1062.82C1487.92,1062.29 1501.53,1055.97 1514.97,1043.83C1528.41,1031.7 1538.88,1016.03 1546.38,996.821C1553.88,977.612 1556.44,958.488 1554.04,939.45L1553.58,935.765C1541.52,932.11 1531.38,927.353 1523.15,921.495C1514.93,915.636 1510.64,911.274 1510.28,908.408C1509.92,905.542 1511.9,902.741 1516.24,900.005C1520.57,897.269 1525.16,895.809 1530,895.625C1537.08,895.356 1544.41,898.575 1551.99,905.28C1559.57,911.985 1565.21,919.69 1568.93,928.393C1581.02,932.253 1591.43,934.017 1600.19,933.684C1608.94,933.351 1615.82,932.267 1620.83,930.431C1621.19,933.297 1619.65,935.927 1616.21,938.32C1612.77,940.714 1607.13,942.059 1599.31,942.357C1591.49,942.654 1582.42,941.97 1572.11,940.305C1574.21,959.972 1571.3,979.932 1563.37,1000.19C1555.44,1020.44 1543.01,1037.62 1526.07,1051.74C1509.14,1065.86 1490.24,1073.31 1469.38,1074.11Z" style="fill:white;fill-rule:nonzero;stroke:white;stroke-width:6.8px;"/>
            <path d="M1745.81,1025.87C1744.88,1000.63 1752.1,968.635 1767.47,929.877C1768.51,927.813 1767.36,926.902 1764.01,927.145C1761.4,927.379 1759,928.022 1756.8,929.072C1740.65,936.847 1723.07,951.102 1704.04,971.839C1685.02,992.576 1669.85,1011.47 1658.53,1028.53C1647.21,1045.59 1641.6,1055.56 1641.71,1058.43C1641.8,1060.89 1639.05,1062.15 1633.45,1062.22C1622.25,1062.34 1616.35,1054.3 1615.75,1038.09C1614.62,1007.32 1619.19,979.507 1629.48,954.661C1639.76,929.814 1652.93,917.301 1668.98,917.122C1676.07,917.043 1679.69,919.157 1679.85,923.466C1663.78,953.406 1652.59,984.112 1646.29,1015.59L1651.33,1015.53C1698.1,947.276 1742.2,912.918 1783.63,912.456C1801.54,912.256 1810.68,916.978 1811.04,926.62C1794.55,955.538 1782.91,983.992 1776.1,1011.98L1780.58,1011.93C1792.37,997.433 1804.3,984.215 1816.36,972.279C1828.43,960.343 1842.68,949.203 1859.1,938.86C1875.52,928.518 1890.45,923.271 1903.89,923.121C1921.8,922.921 1930.93,927.54 1931.28,936.978C1913.18,972.687 1904.76,1007.37 1906,1041.01C1906.8,1062.76 1913.18,1073.57 1925.12,1073.43C1929.23,1073.39 1933.3,1072.37 1937.33,1070.37C1941.36,1068.38 1944.13,1067.37 1945.62,1067.35C1950.85,1067.3 1950.74,1069.55 1945.31,1074.13C1943.87,1075.58 1940.68,1077.57 1935.73,1080.09C1930.78,1082.61 1925.88,1083.89 1921.03,1083.94C1906.47,1084.11 1894.97,1078.64 1886.54,1067.55C1878.1,1056.46 1873.55,1041.99 1872.89,1024.14C1871.73,992.75 1876.68,965.09 1887.75,941.158C1888.44,939.713 1887.48,939.006 1884.87,939.035C1882.64,939.265 1880.42,939.905 1878.22,940.956C1857.32,951.246 1834.3,970.129 1809.18,997.604C1784.05,1025.08 1771.58,1041.28 1771.76,1046.2C1771.86,1048.66 1768.91,1049.93 1762.94,1050C1752.12,1050.12 1746.41,1042.07 1745.81,1025.87Z" style="fill:white;fill-rule:nonzero;stroke:white;stroke-width:6.8px;"/>
            <path d="M2007.82,1062.68C1977.22,1062.14 1962.69,1048.64 1964.23,1022.18C1965.15,1006.39 1973.25,989.185 1988.53,970.565C2009.85,944.455 2036.83,926.863 2069.48,917.788C2083.53,913.929 2096.52,912.105 2108.46,912.315C2120.4,912.525 2129.74,914.127 2136.48,917.119C2143.21,920.112 2147.43,923.061 2149.13,925.965L2152.25,930.023C2150.93,933.49 2147.66,935.178 2142.43,935.086C2136.46,934.981 2133.06,934.151 2132.21,932.596C2131.37,931.042 2130.42,929.691 2129.37,928.543C2128.31,927.395 2125.79,925.811 2121.8,923.79C2117.81,921.77 2113.2,920.713 2107.98,920.621C2083.72,920.195 2061.01,931.805 2039.84,955.454C2015.83,982.748 2003.12,1008.6 2001.7,1033.01C2000.98,1045.31 2005.1,1051.54 2014.06,1051.7C2021.15,1051.83 2031.38,1047.64 2044.77,1039.15C2058.15,1030.66 2072.31,1019.98 2087.25,1007.1C2113.19,984.975 2134.3,965.739 2150.56,949.395C2164.11,934.852 2177.6,927.698 2191.03,927.934C2198.12,928.059 2201.53,930.48 2201.26,935.197C2197.67,939.035 2193.06,944.497 2187.42,951.584C2181.77,958.67 2174.04,972.803 2164.22,993.982C2154.39,1015.16 2148.86,1036.31 2147.63,1057.44C2146.4,1078.56 2151.57,1089.23 2163.14,1089.43C2167.62,1089.51 2171.78,1088.51 2175.64,1086.42C2179.5,1084.33 2183.04,1081.16 2186.28,1076.9C2187.53,1074.67 2190.21,1073.59 2194.31,1073.66C2195.8,1073.68 2196.91,1074.01 2197.62,1074.64C2198.33,1075.27 2198.27,1076.29 2197.44,1077.72C2196.61,1079.14 2195.18,1081.12 2193.17,1083.65C2191.16,1086.18 2186.94,1089.54 2180.54,1093.74C2174.13,1097.94 2167.57,1099.98 2160.85,1099.86C2145.18,1099.59 2133.47,1093.73 2125.73,1082.31C2117.99,1070.88 2114.57,1057.47 2115.47,1042.09C2116.37,1026.71 2119.28,1011.98 2124.21,997.898L2118.61,997.799C2068.63,1041.47 2031.7,1063.1 2007.82,1062.68Z" style="fill:white;fill-rule:nonzero;stroke:white;stroke-width:6.8px;"/>
            <path d="M2249.9,1057.82C2248.04,1072.15 2255.49,1079.64 2272.25,1080.29C2287.89,1080.9 2303.42,1074.42 2318.84,1060.83C2334.26,1047.23 2343.37,1029.69 2346.15,1008.2C2347.5,997.761 2345.97,982.889 2341.55,963.584C2337.12,944.278 2335.29,931.709 2336.04,925.875C2336.8,920.042 2337.67,916.219 2338.65,914.406C2333.26,918.515 2317.44,932.245 2291.21,955.596C2264.98,978.948 2242.01,997.335 2222.31,1010.76C2220.71,1011.52 2218.63,1011.7 2216.07,1011.29C2213.5,1010.88 2211.44,1010.18 2209.88,1009.19C2208.32,1008.21 2207.57,1007.51 2207.62,1007.1C2207.68,1006.69 2207.9,1006.39 2208.3,1006.2C2227.61,992.966 2250.48,974.574 2276.93,951.026C2303.37,927.477 2325.19,909.97 2342.4,898.506C2359.6,887.042 2375.84,881.608 2391.11,882.206C2398.93,882.512 2402.6,884.507 2402.12,888.191C2401.8,890.648 2398.21,893.799 2391.35,897.645C2369.62,909.343 2357.91,921.743 2356.22,934.842C2355.21,942.62 2358.67,957.825 2366.59,980.456C2374.51,1003.09 2377.82,1019.42 2376.52,1029.45C2374.19,1047.46 2363.08,1062.4 2343.21,1074.28C2323.33,1086.15 2301.85,1091.63 2278.76,1090.73C2245.99,1089.45 2230.94,1078.47 2233.62,1057.8C2235.63,1042.24 2246.4,1026.31 2265.92,1010C2285.43,993.686 2304.33,982.905 2322.6,977.654C2326.11,976.557 2328.16,977.357 2328.74,980.055C2329.33,982.752 2328.45,984.466 2326.11,985.198C2305.58,990.566 2286.75,1003 2269.63,1022.49C2257.75,1036.22 2251.17,1047.99 2249.9,1057.82Z" style="fill:white;fill-rule:nonzero;stroke:white;stroke-width:6.8px;"/>
            <path d="M2459.07,943.905C2444.6,942.999 2438.04,939.284 2439.4,932.76C2439.9,930.313 2442.08,928.9 2445.91,928.521C2446.33,928.34 2446.9,928.273 2447.64,928.32C2449.57,929.886 2453.6,930.861 2459.72,931.245C2465.84,931.628 2475.62,932.034 2489.06,932.462C2511.86,907.661 2531.23,895.76 2547.18,896.758C2553.49,897.153 2556.24,899.288 2555.44,903.162C2547.81,910.945 2538.96,921.027 2528.88,933.407C2566.07,933.464 2590.22,933.841 2601.35,934.538C2604.32,934.724 2605.63,935.632 2605.3,937.263C2604.62,940.526 2600.39,941.913 2592.6,941.425C2588.52,941.169 2564.52,941.835 2520.6,943.422C2480.73,992.558 2457.52,1032.93 2450.97,1064.53C2444.42,1096.13 2452.64,1112.65 2475.64,1114.09C2484.92,1114.67 2494.09,1113.03 2503.16,1109.15C2512.23,1105.28 2518.87,1101.31 2523.1,1097.24C2525.05,1095.09 2528.33,1094.67 2532.94,1095.99C2535.08,1096.54 2535.7,1097.2 2534.78,1097.97C2532.01,1100.48 2528.59,1103.36 2524.54,1106.62C2520.48,1109.88 2513.1,1113.75 2502.4,1118.25C2491.7,1122.74 2481.34,1124.67 2471.33,1124.05C2427.18,1121.28 2409.49,1098.8 2418.24,1056.59C2425.63,1020.91 2445.59,983.541 2478.11,944.478C2472.84,944.561 2466.49,944.37 2459.07,943.905Z" style="fill:white;fill-rule:nonzero;stroke:white;stroke-width:6.8px;"/>
            <path d="M2723.43,946.672C2751.5,948.953 2763.11,959.127 2758.25,977.194C2755.46,987.547 2746.26,997.897 2730.64,1008.24C2704.14,1025.38 2673.17,1032.51 2637.71,1029.63C2632.17,1029.18 2627.69,1028.29 2624.27,1026.98C2620.85,1025.66 2618.49,1023.92 2617.19,1021.74C2643.41,1023.87 2669.66,1017.5 2695.93,1002.62C2717.26,990.665 2729.43,979.104 2732.43,967.939C2734.67,959.616 2729.7,954.96 2717.51,953.969C2693.13,951.988 2667.61,960.596 2640.93,979.793C2612.29,1000.7 2594.74,1023.13 2588.3,1047.08C2582.84,1067.38 2590.08,1080.41 2610.04,1086.18C2613.89,1087.33 2618.95,1088.15 2625.23,1088.66C2631.51,1089.17 2638.39,1088.85 2645.87,1087.7C2653.35,1086.54 2659.82,1084.94 2665.27,1082.9C2676.19,1078.8 2685.57,1074.07 2693.44,1068.69C2695.35,1067.19 2698.34,1066.6 2702.4,1066.93C2709.05,1067.47 2712.02,1068.34 2711.33,1069.53C2709.62,1071.67 2704.45,1075.09 2695.83,1079.78C2687.21,1084.47 2679.43,1088.14 2672.49,1090.79C2665.55,1093.45 2656.84,1095.64 2646.37,1097.38C2635.9,1099.13 2625.68,1099.59 2615.71,1098.78C2576.56,1095.6 2554.37,1083.42 2549.12,1062.25C2547.65,1055.08 2547.9,1047.84 2549.87,1040.53C2553.53,1026.93 2563.24,1012.58 2579,997.473C2603.65,974.585 2633.3,959.052 2667.96,950.875C2686.85,946.602 2705.34,945.201 2723.43,946.672Z" style="fill:white;fill-rule:nonzero;stroke:white;stroke-width:6.8px;"/>
        </g>
    </g>
</svg>
